<?xml version="1.0" encoding="utf-8"?>
<!-- Generator: Adobe Illustrator 22.1.0, SVG Export Plug-In . SVG Version: 6.00 Build 0)  -->
<svg version="1.1" id="Layer_1" xmlns="http://www.w3.org/2000/svg" xmlns:xlink="http://www.w3.org/1999/xlink" x="0px" y="0px"
	 viewBox="0 0 512 512" style="enable-background:new 0 0 512 512;" xml:space="preserve">
<g>
	<path d="M450.5,143.5C437.8,121.6,281.4,31,256,31S74.1,121.3,61.5,143.5s-12.7,202.9,0,225S230.5,481,256,481
		s181.8-90.5,194.5-112.5S463.3,165.5,450.5,143.5z M308.7,395.1c-3.5,0-36-31.4-33.4-34c0.8-0.8,5.5-1.3,15.4-1.6
		c0-23.1,0.5-60.3,0.8-75.9c0-1.8-0.4-3-0.4-5.1h-70.3c0,6.2-0.4,31.8,1.2,64.1c0.2,4-1.4,5.3-5,5.2c-8.9,0-17.8-0.1-26.7-0.1
		c-3.6,0-5.2-1.3-5-5.4c0.8-29.4,2.6-73.8-0.1-186.9v-2.8c-8.5-0.3-14.4-0.9-15.2-1.6c-2.6-2.6,30.4-34,33.8-34
		c3.5,0,36.2,31.4,33.6,34c-0.8,0.8-6.9,1.3-14.7,1.6v2.8c-2.1,22.6-1.8,70-2.3,92.6h70.5c0-4,0.3-30.5-1.1-73.5
		c-0.1-3,0.8-4.5,3.7-4.6c9.7-0.1,19.5-0.1,29.2-0.1c3,0,4,1.5,4,4.7c-3.2,168.1-0.6,156.4-0.6,184.9c7.8,0.3,14.8,0.9,15.5,1.6
		C344.2,363.6,312.1,395.1,308.7,395.1L308.7,395.1z"/>
</g>
</svg>
