<svg xmlns="http://www.w3.org/2000/svg"  viewBox="0 0 100 100" width="100px" height="100px"><path fill="#c7ede6" d="M87.215,57.71C88.35,55.555,89,53.105,89,50.5c0-6.621-4.159-12.257-10.001-14.478	C78.999,36.015,79,36.008,79,36c0-11.598-9.402-21-21-21c-9.784,0-17.981,6.701-20.313,15.757C36.211,30.272,34.638,30,33,30	c-7.692,0-14.023,5.793-14.89,13.252C12.906,44.353,9,48.969,9,54.5C9,60.851,14.149,66,20.5,66c0.177,0,0.352-0.012,0.526-0.022	C21.022,66.153,21,66.324,21,66.5C21,77.822,30.178,87,41.5,87c6.437,0,12.175-2.972,15.934-7.614C59.612,81.611,62.64,83,66,83	c4.65,0,8.674-2.65,10.666-6.518C77.718,76.817,78.837,77,80,77c6.075,0,11-4.925,11-11C91,62.689,89.53,59.727,87.215,57.71z"/><path fill="#fdfcef" d="M21.875,59v-0.5H7c-2.481,0-4.5-2.019-4.5-4.5c0-2.422,1.895-4.396,4.313-4.496l0.677-0.027	l0.226-0.64C8.208,47.439,9.527,46.5,11,46.5c0.41,0,0.812,0.072,1.194,0.215l1.189,0.442l0.152-1.26	c0.303-2.507,2.437-4.397,4.964-4.397c2.047,0,3.916,1.288,4.649,3.206l0.438,1.144l1.033-0.657C25.332,44.739,26.155,44.5,27,44.5	c2.402,0,4.377,1.879,4.494,4.276l0.035,0.721l0.695,0.193C34.153,50.228,33.5,52,33.5,54c0,2.481-0.019,4.5-2.5,4.5h-6.125V59	H21.875z"/><path fill="#fdfcef" d="M24.875,58.5c0,0,3.64,0,6.125,0s1-2.015,1-4.5c0-2.333,1.718-4.229-0.555-4.455	C31.467,49.364,31.5,49.187,31.5,49c0-2.485-2.015-4.5-4.5-4.5c-1.438,0-2.703,0.686-3.527,1.736C23.333,43.6,21.171,41.5,18.5,41.5	c-2.761,0-5,2.239-5,5c0,0.446,0.077,0.87,0.187,1.282C13.045,47.005,12.086,46.5,11,46.5c-1.781,0-3.234,1.335-3.455,3.055	C7.364,49.533,7.187,49.5,7,49.5c-2.485,0-4.5,2.015-4.5,4.5s2.015,4.5,4.5,4.5s9.5,0,9.5,0h5.375V59h3V58.5z"/><path fill="#472b29" d="M24.875,59c-0.275,0-0.5-0.225-0.5-0.5s0.225-0.5,0.5-0.5H31c2.206,0,2-1.794,2-4	c0-2.052,0.449-3.754-1.606-3.958c-0.13-0.013-0.256-0.081-0.338-0.184c-0.083-0.104-0.123-0.243-0.106-0.373l0.019-0.142	C30.99,49.189,31,49.096,31,49c0-2.206-1.794-4-4-4c-1.22,0-2.362,0.562-3.133,1.544c-0.094,0.121-0.243,0.193-0.393,0.193	c-0.049,0-0.101-0.008-0.151-0.024c-0.194-0.061-0.338-0.245-0.35-0.448C22.847,43.874,20.881,42,18.5,42	c-2.481,0-4.5,2.019-4.5,4.5c0,0.353,0.054,0.719,0.169,1.154c0.059,0.221-0.05,0.468-0.253,0.57	c-0.073,0.039-0.154,0.058-0.229,0.058c-0.148,0-0.289-0.066-0.385-0.182C12.724,47.401,11.884,47,11,47	c-1.496,0-2.769,1.126-2.959,2.618c-0.032,0.247-0.245,0.437-0.495,0.437L7.331,50.03C7.189,50.01,7.096,50,7,50	c-2.206,0-4,1.794-4,4s1.794,4,4,4h14.875c0.275,0,0.5,0.225,0.5,0.5s-0.225,0.5-0.5,0.5H7c-2.757,0-5-2.243-5-5	c0-2.589,1.941-4.729,4.516-4.978l0.591-0.057l0.232-0.545C7.969,46.95,9.405,46,11,46c0.309,0,0.617,0.036,0.916,0.108l0.994,0.24	l0.218-1C13.675,42.829,15.934,41,18.5,41c2.113,0,3.999,1.18,4.923,3.078l0.444,0.913l0.906-0.458C25.463,44.185,26.232,44,27,44	c2.561,0,4.697,1.917,4.971,4.459l0.067,0.631l0.601,0.207C34.649,49.99,34,51.88,34,54c0,2.757-0.243,5-3,5H24.875z"/><path fill="#472b29" d="M18.5,41c-3.033,0-5.5,2.467-5.5,5.5c0,0.016,0,0.031,0,0.047C12.398,46.192,11.71,46,11,46	c-1.831,0-3.411,1.261-3.858,3.005C7.095,49.002,7.048,49,7,49c-2.757,0-5,2.243-5,5s2.243,5,5,5h14.875c0.276,0,0.5-0.224,0.5-0.5	s-0.224-0.5-0.5-0.5H7c-2.206,0-4-1.794-4-4s1.794-4,4-4c0.117,0,0.23,0.017,0.343,0.032l0.141,0.019	c0.021,0.003,0.041,0.004,0.062,0.004c0.246,0,0.462-0.185,0.495-0.437C8.232,48.125,9.504,47,11,47c0.885,0,1.723,0.401,2.301,1.1	c0.098,0.118,0.241,0.182,0.386,0.182c0.078,0,0.156-0.018,0.228-0.056c0.209-0.107,0.314-0.346,0.254-0.573	C14.054,47.218,14,46.852,14,46.5c0-2.481,2.019-4.5,4.5-4.5c2.381,0,4.347,1.872,4.474,4.263c0.011,0.208,0.15,0.387,0.349,0.45	c0.05,0.016,0.101,0.024,0.152,0.024c0.15,0,0.296-0.069,0.392-0.192C24.638,45.563,25.779,45,27,45c2.206,0,4,1.794,4,4	c0,0.117-0.017,0.23-0.032,0.343l-0.019,0.141c-0.016,0.134,0.022,0.268,0.106,0.373c0.084,0.105,0.207,0.172,0.34,0.185	C33.451,50.247,33,51.949,33,54c0,2.206,0.206,4-2,4h-6.125c-0.276,0-0.5,0.224-0.5,0.5s0.224,0.5,0.5,0.5H31c2.757,0,3-2.243,3-5	c0-2.397,0.311-4.413-2.003-4.877C31.999,49.082,32,49.041,32,49c0-2.757-2.243-5-5-5c-1.176,0-2.293,0.416-3.183,1.164	C23.219,42.76,21.055,41,18.5,41L18.5,41z"/><path fill="#472b29" d="M17,48c-1.403,0-2.609,0.999-2.913,2.341C13.72,50.119,13.301,50,12.875,50	c-1.202,0-2.198,0.897-2.353,2.068C10.319,52.022,10.126,52,9.937,52c-1.529,0-2.811,1.2-2.918,2.732	C7.01,54.87,7.114,54.99,7.251,55c0.006,0,0.012,0,0.018,0c0.13,0,0.24-0.101,0.249-0.232C7.607,53.497,8.669,52.5,9.937,52.5	c0.229,0,0.47,0.042,0.738,0.127c0.022,0.007,0.045,0.01,0.067,0.01c0.055,0,0.11-0.02,0.156-0.054	C10.962,52.537,11,52.455,11,52.375c0-1.034,0.841-1.875,1.875-1.875c0.447,0,0.885,0.168,1.231,0.473	c0.047,0.041,0.106,0.063,0.165,0.063c0.032,0,0.063-0.006,0.093-0.019c0.088-0.035,0.148-0.117,0.155-0.212	C14.623,49.512,15.712,48.5,17,48.5c0.208,0,0.425,0.034,0.682,0.107c0.023,0.007,0.047,0.01,0.07,0.01	c0.109,0,0.207-0.073,0.239-0.182c0.038-0.133-0.039-0.271-0.172-0.309C17.517,48.04,17.256,48,17,48L17,48z"/><path fill="#fff" d="M70.405,24H60.5c-0.276,0-0.5-0.224-0.5-0.5s0.224-0.5,0.5-0.5h9.905c0.276,0,0.5,0.224,0.5,0.5	S70.682,24,70.405,24z"/><path fill="#fff" d="M73.5,24h-1c-0.276,0-0.5-0.224-0.5-0.5s0.224-0.5,0.5-0.5h1c0.276,0,0.5,0.224,0.5,0.5	S73.777,24,73.5,24z"/><path fill="#fff" d="M78.491,26H69.5c-0.276,0-0.5-0.224-0.5-0.5s0.224-0.5,0.5-0.5h8.991c0.276,0,0.5,0.224,0.5,0.5	S78.767,26,78.491,26z"/><path fill="#fff" d="M67.5,26h-1c-0.276,0-0.5-0.224-0.5-0.5s0.224-0.5,0.5-0.5h1c0.276,0,0.5,0.224,0.5,0.5	S67.777,26,67.5,26z"/><path fill="#fff" d="M64.5,26h-2c-0.276,0-0.5-0.224-0.5-0.5s0.224-0.5,0.5-0.5h2c0.276,0,0.5,0.224,0.5,0.5	S64.777,26,64.5,26z"/><path fill="#fff" d="M70.5,28h-2c-0.276,0-0.5-0.224-0.5-0.5s0.224-0.5,0.5-0.5h2c0.276,0,0.5,0.224,0.5,0.5	S70.776,28,70.5,28z"/><path fill="#fff" d="M73.5,19c-0.177,0-0.823,0-1,0c-0.276,0-0.5,0.224-0.5,0.5s0.224,0.5,0.5,0.5c0.177,0,0.823,0,1,0	c0.276,0,0.5-0.224,0.5-0.5S73.776,19,73.5,19z"/><path fill="#fff" d="M73.5,21c-0.177,0-4.823,0-5,0c-0.276,0-0.5,0.224-0.5,0.5s0.224,0.5,0.5,0.5c0.177,0,4.823,0,5,0	c0.276,0,0.5-0.224,0.5-0.5S73.776,21,73.5,21z"/><path fill="#fff" d="M78.5,23c-0.177,0-2.823,0-3,0c-0.276,0-0.5,0.224-0.5,0.5s0.224,0.5,0.5,0.5c0.177,0,2.823,0,3,0	c0.276,0,0.5-0.224,0.5-0.5S78.776,23,78.5,23z"/><path fill="#fff" d="M32.5,81h-10c-0.276,0-0.5-0.224-0.5-0.5s0.224-0.5,0.5-0.5h10c0.276,0,0.5,0.224,0.5,0.5	S32.776,81,32.5,81z"/><path fill="#fff" d="M36.5,81h-2c-0.276,0-0.5-0.224-0.5-0.5s0.224-0.5,0.5-0.5h2c0.276,0,0.5,0.224,0.5,0.5	S36.776,81,36.5,81z"/><path fill="#fff" d="M41.5,83h-10c-0.276,0-0.5-0.224-0.5-0.5s0.224-0.5,0.5-0.5h10c0.276,0,0.5,0.224,0.5,0.5	S41.777,83,41.5,83z"/><path fill="#fff" d="M29.5,83h-1c-0.276,0-0.5-0.224-0.5-0.5s0.224-0.5,0.5-0.5h1c0.276,0,0.5,0.224,0.5,0.5	S29.776,83,29.5,83z"/><path fill="#fff" d="M26.375,83H24.5c-0.276,0-0.5-0.224-0.5-0.5s0.224-0.5,0.5-0.5h1.875c0.276,0,0.5,0.224,0.5,0.5	S26.651,83,26.375,83z"/><path fill="#fff" d="M35.5,79h-5c-0.276,0-0.5-0.224-0.5-0.5s0.224-0.5,0.5-0.5h5c0.276,0,0.5,0.224,0.5,0.5	S35.777,79,35.5,79z"/><path fill="#fff" d="M32.5,85h-2c-0.276,0-0.5-0.224-0.5-0.5s0.224-0.5,0.5-0.5h2c0.276,0,0.5,0.224,0.5,0.5	S32.776,85,32.5,85z"/><path fill="#78a0cf" d="M39.775,50.315v19.807h-7.837c-1.626,0-2.939-1.313-2.939-2.939V41.891L39.775,50.315z"/><path fill="#c4211f" d="M39.775,36.64v13.675L29,41.891v-2.625c0-1.254,0.431-2.41,1.146-3.321	c1.774-2.305,5.258-2.768,7.563-0.921L39.775,36.64z"/><polygon fill="#eb4235" points="66.224,36.64 66.224,50.305 53,60.64 39.775,50.315 39.775,36.64 53,46.965"/><path fill="#f1bc19" d="M77,39.265v2.625l-10.775,8.415V36.64l2.067-1.616c0.99-0.774,2.155-1.146,3.321-1.146	C74.512,33.85,77.033,36.313,77,39.265z"/><path fill="#9ca74c" d="M77,41.891v25.293c0,1.626-1.313,2.939-2.939,2.939h-7.837V50.305L77,41.891z"/><line x1="31.939" x2="31.939" y1="65.224" y2="67.184" fill="none" stroke="#472b29" stroke-linecap="round" stroke-linejoin="round" stroke-miterlimit="10" stroke-width=".75"/><line x1="31.939" x2="31.939" y1="59.347" y2="62.286" fill="none" stroke="#472b29" stroke-linecap="round" stroke-linejoin="round" stroke-miterlimit="10" stroke-width=".75"/><line x1="31.939" x2="31.939" y1="49.551" y2="56.353" fill="none" stroke="#472b29" stroke-linecap="round" stroke-linejoin="round" stroke-miterlimit="10" stroke-width=".75"/><path fill="none" stroke="#472b29" stroke-linejoin="round" stroke-miterlimit="10" stroke-width="1.4" d="M39.775,36.867v33.256	h-7.837c-1.623,0-2.939-1.316-2.939-2.939V39.265c0-2.976,2.412-5.388,5.388-5.388"/><path fill="none" stroke="#472b29" stroke-linejoin="round" stroke-miterlimit="10" stroke-width="1.4" d="M75.858,35.948	c-1.832-2.345-5.218-2.76-7.563-0.929L53,46.97l0,0L37.705,35.02c-2.345-1.832-5.731-1.416-7.563,0.929"/><line x1="54.356" x2="58.81" y1="55.842" y2="52.318" fill="none" stroke="#472b29" stroke-linecap="round" stroke-linejoin="round" stroke-miterlimit="10" stroke-width=".75"/><line x1="48.822" x2="52.289" y1="53.609" y2="56.353" fill="none" stroke="#472b29" stroke-linecap="round" stroke-linejoin="round" stroke-miterlimit="10" stroke-width=".75"/><line x1="44.985" x2="47.285" y1="50.573" y2="52.393" fill="none" stroke="#472b29" stroke-linecap="round" stroke-linejoin="round" stroke-miterlimit="10" stroke-width=".75"/><line x1="42.456" x2="43.448" y1="48.571" y2="49.357" fill="none" stroke="#472b29" stroke-linecap="round" stroke-linejoin="round" stroke-miterlimit="10" stroke-width=".75"/><polyline fill="none" stroke="#472b29" stroke-linejoin="round" stroke-miterlimit="10" stroke-width="1.4" points="29.157,42.015 53,60.644 53,60.644 76.826,42.029"/><path fill="none" stroke="#472b29" stroke-linejoin="round" stroke-miterlimit="10" stroke-width="1.4" d="M71.612,33.878	c2.976,0,5.388,2.412,5.388,5.388v27.918c0,1.623-1.316,2.939-2.939,2.939h-7.837V36.8"/><path fill="#fdfcef" d="M84.5,66v-0.5H77c-1.93,0-3.5-1.57-3.5-3.5c0-1.895,1.482-3.431,3.375-3.498l0.609-0.021l0.26-0.551	c0.409-0.868,1.295-1.43,2.256-1.43c0.142,0,0.28,0.012,0.417,0.035l0.97,0.172l0.186-0.967c0.362-1.878,2.014-3.24,3.928-3.24	c1.438,0,2.773,0.783,3.485,2.045l0.485,0.859l0.866-0.475c0.514-0.281,1.088-0.43,1.663-0.43c1.866,0,3.402,1.459,3.495,3.321	l0.034,0.671l0.633,0.223C97.561,59.207,98.5,60.527,98.5,62c0,1.93-1.57,3.5-3.5,3.5h-3.5V66H84.5z"/><path fill="#fdfcef" d="M91.5,65.5c0,0,1.567,0,3.5,0s3.5-1.567,3.5-3.5c0-1.781-1.335-3.234-3.055-3.455	C95.473,58.366,95.5,58.187,95.5,58c0-1.933-1.567-3.5-3.5-3.5c-1.032,0-1.95,0.455-2.59,1.165c-0.384-1.808-1.987-3.165-3.91-3.165	c-2.209,0-4,1.791-4,4c0,0.191,0.03,0.374,0.056,0.558C81.128,56.714,80.592,56.5,80,56.5c-1.228,0-2.245,0.887-2.455,2.055	C77.366,58.527,77.187,58.5,77,58.5c-1.933,0-3.5,1.567-3.5,3.5s1.567,3.5,3.5,3.5s7.5,0,7.5,0V66h7V65.5z"/><path fill="#472b29" d="M93.25,61C93.112,61,93,60.888,93,60.75c0-1.223,0.995-2.218,2.218-2.218	c0.034,0.009,0.737-0.001,1.244,0.136c0.133,0.036,0.212,0.173,0.176,0.306c-0.036,0.134-0.173,0.213-0.306,0.176	c-0.444-0.12-1.1-0.12-1.113-0.118c-0.948,0-1.719,0.771-1.719,1.718C93.5,60.888,93.388,61,93.25,61z"/><circle cx="86.5" cy="65.5" r=".5" fill="#472b29"/><path fill="#472b29" d="M91.5,66c-0.275,0-0.5-0.225-0.5-0.5s0.225-0.5,0.5-0.5H95c1.654,0,3-1.346,3-3	c0-1.496-1.126-2.769-2.618-2.959c-0.13-0.017-0.257-0.09-0.335-0.195c-0.082-0.108-0.116-0.248-0.095-0.379	C94.984,58.258,95,58.131,95,58c0-1.654-1.346-3-3-3c-0.85,0-1.638,0.355-2.219,1.001c-0.095,0.104-0.23,0.165-0.372,0.165	c-0.042,0-0.085-0.006-0.127-0.018c-0.187-0.051-0.322-0.196-0.361-0.38C88.58,54.164,87.142,53,85.5,53c-1.93,0-3.5,1.57-3.5,3.5	c0,0.121,0.014,0.238,0.032,0.354c0.039,0.272-0.057,0.503-0.233,0.604c-0.094,0.053-0.193,0.081-0.289,0.081	c-0.103,0-0.189-0.029-0.266-0.091C80.877,57.155,80.447,57,80,57c-0.967,0-1.793,0.691-1.963,1.645	c-0.043,0.237-0.249,0.41-0.491,0.41l-0.117-0.011C77.257,59.016,77.13,59,77,59c-1.654,0-3,1.346-3,3s1.346,3,3,3h7.5	c0.275,0,0.5,0.225,0.5,0.5S84.775,66,84.5,66H77c-2.206,0-4-1.794-4-4c0-2.041,1.59-3.79,3.62-3.982l0.519-0.049l0.258-0.452	C77.927,56.581,78.925,56,80,56l0.952,0.038l0.216-0.761C81.716,53.348,83.497,52,85.5,52c1.491,0,2.881,0.736,3.718,1.969	l0.463,0.684l0.759-0.326C90.937,54.112,91.476,54,92,54c2.03,0,3.738,1.52,3.974,3.534l0.067,0.576l0.534,0.228	C98.048,58.966,99,60.403,99,62c0,2.206-1.794,4-4,4H91.5z"/><path fill="#472b29" d="M95,66h-3.5c-0.276,0-0.5-0.224-0.5-0.5s0.224-0.5,0.5-0.5H95c1.654,0,3-1.346,3-3	c0-1.496-1.125-2.768-2.618-2.959c-0.134-0.018-0.255-0.088-0.336-0.196s-0.115-0.244-0.094-0.377C94.975,58.314,95,58.16,95,58	c0-1.654-1.346-3-3-3c-0.85,0-1.638,0.355-2.219,1c-0.125,0.139-0.321,0.198-0.5,0.148c-0.182-0.049-0.321-0.195-0.36-0.379	C88.58,54.165,87.141,53,85.5,53c-1.93,0-3.5,1.57-3.5,3.5c0,0.143,0.021,0.28,0.041,0.418c0.029,0.203-0.063,0.438-0.242,0.54	c-0.179,0.102-0.396,0.118-0.556-0.01C80.878,57.155,80.449,57,80,57c-0.966,0-1.792,0.691-1.963,1.644	c-0.048,0.267-0.296,0.446-0.569,0.405C77.314,59.025,77.16,59,77,59c-1.654,0-3,1.346-3,3s1.346,3,3,3h7.5	c0.276,0,0.5,0.224,0.5,0.5S84.776,66,84.5,66H77c-2.206,0-4-1.794-4-4s1.794-4,4-4c0.059,0,0.116,0.002,0.174,0.006	C77.588,56.82,78.711,56,80,56c0.349,0,0.689,0.061,1.011,0.18C81.176,53.847,83.126,52,85.5,52c1.831,0,3.466,1.127,4.153,2.774	C90.333,54.276,91.155,54,92,54c2.206,0,4,1.794,4,4c0,0.048-0.001,0.095-0.004,0.142C97.739,58.59,99,60.169,99,62	C99,64.206,97.206,66,95,66z"/><path fill="#472b29" d="M89.5,65c-0.159,0-0.841,0-1,0c-0.276,0-0.5,0.224-0.5,0.5s0.224,0.5,0.5,0.5c0.159,0,0.841,0,1,0	c0.276,0,0.5-0.224,0.5-0.5S89.776,65,89.5,65z"/></svg>